<?xml version="1.0" encoding="utf-8"?>
<!-- Generator: Adobe Illustrator 20.1.0, SVG Export Plug-In . SVG Version: 6.00 Build 0)  -->
<svg version="1.1" id="Слой_1" xmlns="http://www.w3.org/2000/svg" xmlns:xlink="http://www.w3.org/1999/xlink" x="0px" y="0px"
	 viewBox="0 0 179.5 178.9" style="enable-background:new 0 0 179.5 178.9;" xml:space="preserve">
<style type="text/css">
	.st0{fill:#68443A;}
	.st1{fill:#DDD4D2;}
	.st2{fill:#FFFFFF;}
</style>
<g>
	<path class="st0" d="M79.7,0c6.7,0,13.4,0,20.1,0c0.8,0.1,1.7,0.1,2.6,0.2c2.2,0.2,4.4,0.7,6.6,1.2c5,1.1,9.9,2.6,14.7,4.5
		c6.1,2.5,11.8,5.6,17.2,9.3c3.3,2.3,6.5,4.8,9.5,7.6c1.8,1.7,3.5,3.4,5.2,5.1c4,4.3,7.6,9,10.7,14c1.5,2.4,2.9,4.9,4.2,7.5
		c2.7,5.4,4.8,11,6.3,16.8c1,3.8,1.7,7.6,2.2,11.4c0.3,2.3,0.5,4.7,0.5,7c0,0.9,0.1,1.9,0.1,2.8c0,1.2,0,2.4,0,3.5
		c0,2.2,0,4.5-0.2,6.7c-0.2,2.5-0.6,5-1,7.5c-0.8,4.7-2,9.2-3.6,13.7c-1.1,3-2.3,6-3.7,8.9c-2.1,4.4-4.5,8.5-7.2,12.5
		c-2,2.9-4.2,5.7-6.5,8.4c-2,2.3-4.1,4.4-6.3,6.5c-5.1,4.8-10.8,8.9-16.9,12.4c-5.4,3.1-11.1,5.5-17,7.4c-4.4,1.4-8.8,2.4-13.3,3.1
		c-2.6,0.4-5.2,0.8-7.8,0.8c-1.5,0-2.9,0.1-4.4,0.1c-1.2,0-2.4,0-3.5,0c-2.2,0-4.5,0-6.7-0.2c-2.5-0.2-5-0.6-7.5-1
		c-4.7-0.8-9.2-2-13.7-3.6c-3-1-5.9-2.2-8.7-3.6c-4.5-2.1-8.7-4.6-12.8-7.4c-2.9-2-5.7-4.2-8.3-6.5c-2.3-2-4.4-4.1-6.5-6.3
		c-4.8-5.1-8.9-10.8-12.4-16.9c-3.1-5.4-5.5-11-7.4-16.9c-1.4-4.4-2.5-8.8-3.2-13.4c-0.4-2.6-0.8-5.2-0.8-7.8C0.1,93.9,0,92.5,0,91
		c0-1.2,0-2.4,0-3.5c0-2.2,0-4.5,0.2-6.7c0.3-3.6,0.9-7.2,1.7-10.8c1.1-5,2.6-9.9,4.6-14.7c3-7.3,6.9-14.1,11.7-20.4
		c1.6-2.2,3.4-4.3,5.2-6.3c1.7-1.8,3.4-3.6,5.3-5.3c2.9-2.8,6.1-5.3,9.3-7.6c3.8-2.7,7.9-5.1,12.1-7.2c5.3-2.6,10.9-4.7,16.7-6.2
		c3.2-0.8,6.5-1.5,9.8-2c0.9-0.1,1.9-0.1,2.9-0.2C79.4,0,79.6,0.1,79.7,0z"/>
	<path class="st1" d="M123.9,342.7c0-0.1,0-0.1,0-0.2c2.6,0,5.2,0,7.9,0c0,0.1,0,0.1,0,0.2C129.1,342.7,126.5,342.7,123.9,342.7z"/>
	<path class="st2" d="M89.7,143.4c-9.1,0-18.3,0-27.4,0c-5.8,0-11.1-2-15.7-5.5c-5.3-4.1-8.7-9.4-10.2-15.9
		c-0.4-1.8-0.6-3.6-0.6-5.4c0-18.1-0.1-36.2,0-54.3c0-7.9,3.2-14.4,8.9-19.7c3.7-3.4,8.1-5.6,13.1-6.6c1.5-0.3,3.1-0.5,4.7-0.5
		c18.1,0,36.3-0.1,54.4,0c7.8,0,14.4,3.2,19.7,8.9c3.4,3.7,5.6,8.1,6.6,13.1c0.3,1.5,0.5,3.1,0.5,4.7c0,18.2,0,36.4,0,54.6
		c0,6.4-2.3,12.1-6.4,17c-3.9,4.6-8.9,7.6-14.8,9c-2,0.5-4,0.6-6,0.6C107.5,143.4,98.6,143.4,89.7,143.4
		C89.7,143.4,89.7,143.4,89.7,143.4z"/>
	<path class="st0" d="M131.9,89.5c0,8.8,0,17.6,0,26.4c0,2.6-0.5,5.1-1.8,7.4c-2.4,4.5-6.2,7.2-11.2,8.1c-1,0.2-2,0.2-3,0.2
		c-17.5,0-35.1,0-52.6,0c-6.9,0-12.7-4-15-10.3c-0.6-1.8-0.9-3.6-0.9-5.5c0-17.6,0-35.3,0-52.9c0-7.4,4.8-13.2,11-15.1
		c1.6-0.5,3.1-0.7,4.8-0.7c17.6,0,35.3,0,52.9,0c7.2,0,13.1,4.7,15.1,10.9c0.5,1.6,0.7,3.2,0.7,4.9
		C131.9,71.9,131.9,80.7,131.9,89.5z"/>
	<path class="st2" d="M89.7,117.3c-15.3,0-27.9-12.5-27.8-27.8c0-15.3,12.4-27.8,27.9-27.8c15.4,0,27.8,12.6,27.8,27.8
		C117.5,104.8,105,117.3,89.7,117.3z"/>
	<path class="st2" d="M125,60.9c0.1,3.1-2.4,6.5-6.5,6.6c-3.9,0-6.6-3.1-6.6-6.6c0-3.6,3-6.6,6.6-6.6
		C122.5,54.3,125.1,57.7,125,60.9z"/>
	<path class="st0" d="M89.7,105.5c-8.8,0.1-16-7.2-16-16c0-8.7,7.1-16,16-16.1c8.9,0,16,7.3,16.1,16
		C105.8,98.2,98.5,105.5,89.7,105.5z"/>
</g>
</svg>
