<?xml version="1.0" encoding="utf-8"?>
<!-- Generator: Adobe Illustrator 20.1.0, SVG Export Plug-In . SVG Version: 6.00 Build 0)  -->
<svg version="1.1" id="Capa_1" xmlns="http://www.w3.org/2000/svg" xmlns:xlink="http://www.w3.org/1999/xlink" x="0px" y="0px"
	 viewBox="0 0 28.8 28.8" style="enable-background:new 0 0 28.8 28.8;" xml:space="preserve">
<style type="text/css">
	.st0{fill:#FFFFFF;}
</style>
<g>
	<g>
		<path class="st0" d="M20.9,0H8C3.6,0,0,3.6,0,8v12.9c0,4.4,3.6,8,8,8h12.9c4.4,0,8-3.6,8-8V8C28.8,3.6,25.3,0,20.9,0z M26.3,20.9
			c0,3-2.4,5.4-5.4,5.4H8c-3,0-5.4-2.4-5.4-5.4V8C2.6,5,5,2.6,8,2.6h12.9c3,0,5.4,2.4,5.4,5.4L26.3,20.9L26.3,20.9z"/>
		<path class="st0" d="M14.4,7C10.3,7,7,10.3,7,14.4c0,4.1,3.3,7.4,7.4,7.4s7.4-3.3,7.4-7.4C21.8,10.3,18.5,7,14.4,7z M14.4,19.3
			c-2.7,0-4.9-2.2-4.9-4.9c0-2.7,2.2-4.9,4.9-4.9s4.9,2.2,4.9,4.9C19.3,17.1,17.1,19.3,14.4,19.3z"/>
		<path class="st0" d="M22.1,4.8c-0.5,0-1,0.2-1.3,0.5c-0.3,0.3-0.6,0.8-0.6,1.3c0,0.5,0.2,1,0.6,1.3c0.3,0.3,0.8,0.5,1.3,0.5
			c0.5,0,1-0.2,1.3-0.5C23.8,7.7,24,7.2,24,6.7c0-0.5-0.2-1-0.5-1.3C23.1,5,22.6,4.8,22.1,4.8z"/>
	</g>
</g>
</svg>
