<?xml version="1.0" encoding="utf-8"?>
<!-- Generator: Adobe Illustrator 20.1.0, SVG Export Plug-In . SVG Version: 6.00 Build 0)  -->
<svg version="1.1" id="Capa_1" xmlns="http://www.w3.org/2000/svg" xmlns:xlink="http://www.w3.org/1999/xlink" x="0px" y="0px"
	 viewBox="0 0 28.8 28.8" style="enable-background:new 0 0 28.8 28.8;" xml:space="preserve">
<style type="text/css">
	.st0{fill:#FFFFFF;}
</style>
<g>
	<g>
		<path class="st0" d="M18.2,6.5H11c-2.4,0-4.4,2-4.4,4.4v7.2c0,2.4,2,4.4,4.4,4.4h7.2c2.4,0,4.4-2,4.4-4.4v-7.2
			C22.7,8.5,20.7,6.5,18.2,6.5z M21.3,18.1c0,1.7-1.4,3-3,3H11c-1.7,0-3-1.4-3-3v-7.2c0-1.7,1.4-3,3-3h7.2c1.7,0,3,1.4,3,3
			L21.3,18.1L21.3,18.1z"/>
		<path class="st0" d="M14.6,10.4c-2.3,0-4.1,1.9-4.1,4.1c0,2.3,1.9,4.1,4.1,4.1s4.1-1.9,4.1-4.1C18.8,12.2,16.9,10.4,14.6,10.4z
			 M14.6,17.2c-1.5,0-2.7-1.2-2.7-2.7c0-1.5,1.2-2.7,2.7-2.7c1.5,0,2.7,1.2,2.7,2.7C17.4,16,16.1,17.2,14.6,17.2z"/>
		<path class="st0" d="M19,9.1c-0.3,0-0.5,0.1-0.7,0.3c-0.2,0.2-0.3,0.5-0.3,0.7c0,0.3,0.1,0.5,0.3,0.7c0.2,0.2,0.5,0.3,0.7,0.3
			c0.3,0,0.5-0.1,0.7-0.3c0.2-0.2,0.3-0.5,0.3-0.7c0-0.3-0.1-0.5-0.3-0.7C19.5,9.3,19.2,9.1,19,9.1z"/>
	</g>
</g>
</svg>
